<svg width="12" height="11" viewBox="0 0 12 11" fill="none" xmlns="http://www.w3.org/2000/svg">
                                    <path d="M5.99976 7.64687C7.24251 7.64687 8.24996 6.63942 8.24996 5.39668C8.24996 4.15393 7.24251 3.14648 5.99976 3.14648C4.75702 3.14648 3.74957 4.15393 3.74957 5.39668C3.74957 6.63942 4.75702 7.64687 5.99976 7.64687Z" fill="#FFBB47"/>
                                    <path d="M2.28716 10.1703L1.75687 9.64002C0.631946 8.51475 0 6.98878 0 5.39766C0 3.80654 0.631946 2.28056 1.75687 1.1553L2.28716 0.625L3.34775 1.68559L2.81746 2.21589C1.97377 3.05983 1.49981 4.20432 1.49981 5.39766C1.49981 6.591 1.97377 7.73548 2.81746 8.57943L3.34775 9.10972L2.28716 10.1703Z" fill="#FFBB47"/>
                                    <path d="M9.71306 10.1703L8.65247 9.10972L9.18276 8.57943C10.0265 7.73548 10.5004 6.591 10.5004 5.39766C10.5004 4.20432 10.0265 3.05983 9.18276 2.21589L8.65247 1.68559L9.71306 0.625L10.2434 1.1553C11.3683 2.28056 12.0002 3.80654 12.0002 5.39766C12.0002 6.98878 11.3683 8.51475 10.2434 9.64002L9.71306 10.1703Z" fill="#FFBB47"/>
</svg>